<?xml version="1.0" standalone="no"?>
<!DOCTYPE svg PUBLIC "-//W3C//DTD SVG 20010904//EN"
 "http://www.w3.org/TR/2001/REC-SVG-20010904/DTD/svg10.dtd">
<svg version="1.0" xmlns="http://www.w3.org/2000/svg"
 width="571.000000pt" height="571.000000pt" viewBox="0 0 571.000000 571.000000"
 preserveAspectRatio="xMidYMid meet">
<metadata>
Created by potrace 1.11, written by Peter Selinger 2001-2013
</metadata>
<g transform="translate(0.000000,571.000000) scale(0.100000,-0.100000)"
fill="#000000" stroke="none">
<path d="M2424 5688 c14 -46 15 -58 5 -58 -13 0 -12 0 -71 -16 -29 -8 -61 -17
-71 -19 -35 -8 -109 -50 -123 -70 -8 -10 -14 -15 -14 -10 0 5 -11 -2 -25 -17
-14 -15 -25 -32 -25 -38 0 -6 -4 -8 -10 -5 -5 3 -10 0 -10 -7 -1 -7 -9 -31
-20 -53 -11 -22 -19 -45 -20 -50 0 -6 -8 -18 -18 -26 -30 -25 -80 -120 -93
-174 -6 -28 -12 -115 -14 -194 -2 -129 -1 -145 16 -162 11 -11 25 -19 33 -19
8 0 17 -7 20 -16 7 -18 -18 -64 -35 -64 -5 0 -15 -5 -22 -10 -41 -36 -136 -98
-141 -93 -3 4 -6 2 -6 -4 0 -6 -22 -25 -50 -43 -27 -18 -50 -36 -50 -42 0 -5
-5 -6 -10 -3 -6 3 -13 -1 -16 -9 -3 -9 -11 -16 -18 -16 -6 0 -19 -8 -27 -17
-9 -10 -29 -27 -44 -38 -16 -11 -34 -26 -41 -32 -7 -7 -15 -13 -17 -13 -6 0
-54 -42 -125 -107 -25 -24 -50 -43 -55 -43 -4 0 -6 -4 -3 -8 3 -5 -6 -15 -19
-22 -14 -7 -25 -16 -25 -20 0 -4 -25 -33 -55 -66 -80 -86 -95 -103 -95 -109 0
-3 -13 -20 -30 -38 -16 -18 -30 -36 -30 -40 0 -5 -6 -15 -13 -22 -35 -40 -117
-167 -117 -182 0 -6 -4 -13 -9 -15 -8 -2 -102 -179 -106 -198 -1 -3 -9 -23
-19 -45 -39 -88 -78 -192 -92 -247 -1 -5 -2 -9 -4 -10 -1 -2 -3 -10 -5 -18 -1
-8 -8 -35 -16 -60 -14 -52 -12 -42 -34 -145 -9 -44 -18 -93 -20 -110 -2 -16
-6 -50 -9 -75 -17 -128 -22 -346 -11 -477 12 -146 50 -360 85 -478 12 -38 26
-86 32 -105 18 -62 68 -182 119 -287 27 -56 49 -107 49 -113 0 -5 5 -10 10
-10 6 0 15 -11 20 -25 15 -40 141 -225 152 -225 6 0 9 -3 5 -6 -3 -3 -2 -11 3
-18 108 -134 247 -280 345 -361 26 -22 58 -49 70 -60 12 -11 29 -24 37 -30 9
-5 71 -47 139 -93 68 -46 178 -110 244 -142 111 -54 293 -127 339 -136 10 -2
33 -8 50 -13 17 -5 47 -12 66 -15 19 -3 46 -9 60 -12 14 -3 39 -7 55 -9 17 -2
46 -7 65 -10 79 -13 154 -17 315 -18 211 -1 279 6 480 49 6 1 26 4 46 8 20 3
48 10 63 15 14 6 26 8 26 5 0 -2 9 0 21 6 11 6 28 13 37 15 71 14 364 151 460
216 24 16 45 29 48 29 6 0 63 40 82 57 7 7 26 20 42 30 17 9 30 21 30 25 0 4
5 8 10 8 5 0 18 8 29 17 10 10 40 36 66 58 76 64 195 184 262 265 34 41 68 82
75 90 7 8 40 56 73 105 33 50 63 92 68 93 4 2 7 8 7 13 0 5 22 48 49 97 28 48
51 94 53 102 2 8 6 17 9 20 9 9 79 178 79 192 0 8 4 18 9 23 11 12 72 222 87
298 15 81 33 192 42 267 14 120 6 498 -12 585 -2 11 -9 54 -16 95 -6 41 -15
89 -20 105 -11 37 -30 112 -35 134 -9 39 -70 214 -90 256 -43 92 -108 226
-129 263 -41 74 -136 215 -148 220 -4 2 -8 8 -8 13 0 10 -22 39 -57 76 -13 13
-23 26 -23 28 0 20 -330 347 -330 328 0 -3 -9 4 -20 17 -11 13 -20 20 -20 15
0 -4 -9 3 -20 16 -10 13 -19 20 -20 15 0 -4 -9 2 -20 15 -10 13 -19 21 -20 17
0 -4 -11 3 -24 15 -38 35 -56 48 -56 42 0 -3 -10 4 -22 15 -13 12 -51 40 -85
63 -35 23 -63 45 -63 50 0 4 -4 6 -9 3 -5 -4 -11 -3 -13 1 -1 5 -28 25 -59 46
-71 48 -83 82 -32 92 18 3 33 9 34 13 0 4 3 18 5 32 7 36 10 210 4 210 -3 0
-6 28 -8 61 -1 43 -11 80 -32 123 -26 55 -38 73 -80 123 -5 7 -10 16 -10 21 0
16 -41 93 -63 119 -37 43 -58 61 -93 78 -18 8 -36 20 -39 25 -4 6 -11 8 -16 5
-5 -4 -9 -2 -9 2 0 5 -12 10 -27 11 -15 1 -31 6 -36 11 -5 5 -16 7 -23 4 -8
-3 -14 -1 -14 4 0 5 -17 9 -37 9 -23 0 -37 4 -36 11 15 77 17 73 -32 73 -34 0
-47 -4 -52 -17 -13 -34 -35 -52 -57 -44 -12 4 -37 7 -56 6 -19 0 -38 5 -42 10
-5 6 -8 5 -8 -2 0 -7 -6 -10 -14 -7 -16 6 -295 11 -301 6 -2 -2 -40 -5 -85 -7
-45 -2 -84 -6 -87 -9 -8 -8 -53 46 -47 56 3 4 -18 8 -47 8 -49 0 -51 -1 -45
-22z"/>
</g>
</svg>
